<svg xmlns="http://www.w3.org/2000/svg" width="20" height="21" viewBox="0 0 20 21" fill="none"><g clip-path="url(#clip0_2399_4214)"><path fill-rule="evenodd" clip-rule="evenodd" d="M9.99935 2.16667C8.23124 2.16667 6.53555 2.86905 5.2853 4.11929C4.03506 5.36953 3.33268 7.06522 3.33268 8.83333C3.33268 11.415 5.01246 13.9202 6.85431 15.8644C7.75819 16.8185 8.66491 17.5996 9.34658 18.1424C9.60028 18.3444 9.82187 18.5127 9.99935 18.6438C10.1768 18.5127 10.3984 18.3444 10.6521 18.1424C11.3338 17.5996 12.2405 16.8185 13.1444 15.8644C14.9862 13.9202 16.666 11.415 16.666 8.83333C16.666 7.06522 15.9636 5.36953 14.7134 4.11929C13.4632 2.86905 11.7675 2.16667 9.99935 2.16667ZM9.99935 19.6667C9.5371 20.36 9.53689 20.3599 9.53665 20.3597L9.53427 20.3582L9.52871 20.3544L9.50961 20.3415C9.49339 20.3305 9.47025 20.3147 9.44065 20.2942C9.38146 20.2532 9.2964 20.1934 9.18918 20.116C8.9748 19.9612 8.67132 19.7352 8.30837 19.4462C7.58379 18.8692 6.61551 18.0357 5.64439 17.0106C3.73623 14.9965 1.66602 12.085 1.66602 8.83333C1.66602 6.6232 2.54399 4.50358 4.10679 2.94078C5.6696 1.37797 7.78921 0.5 9.99935 0.5C12.2095 0.5 14.3291 1.37797 15.8919 2.94078C17.4547 4.50358 18.3327 6.6232 18.3327 8.83333C18.3327 12.085 16.2625 14.9965 14.3543 17.0106C13.3832 18.0357 12.4149 18.8692 11.6903 19.4462C11.3274 19.7352 11.0239 19.9612 10.8095 20.116C10.7023 20.1934 10.6172 20.2532 10.5581 20.2942C10.5285 20.3147 10.5053 20.3305 10.4891 20.3415L10.47 20.3544L10.4644 20.3582L10.4627 20.3593C10.4624 20.3595 10.4616 20.36 9.99935 19.6667ZM9.99935 19.6667L10.4616 20.36C10.1817 20.5467 9.81656 20.5464 9.53665 20.3597L9.99935 19.6667Z" fill="#FF782D"></path><path fill-rule="evenodd" clip-rule="evenodd" d="M9.99935 7.16667C9.07887 7.16667 8.33268 7.91286 8.33268 8.83333C8.33268 9.75381 9.07887 10.5 9.99935 10.5C10.9198 10.5 11.666 9.75381 11.666 8.83333C11.666 7.91286 10.9198 7.16667 9.99935 7.16667ZM6.66602 8.83333C6.66602 6.99238 8.1584 5.5 9.99935 5.5C11.8403 5.5 13.3327 6.99238 13.3327 8.83333C13.3327 10.6743 11.8403 12.1667 9.99935 12.1667C8.1584 12.1667 6.66602 10.6743 6.66602 8.83333Z" fill="#FF782D"></path></g><defs><clipPath id="clip0_2399_4214"><rect width="20" height="20" fill="white" transform="translate(0 0.5)"></rect></clipPath></defs></svg>